<?xml version="1.0" encoding="UTF-8"?>
<svg xmlns="http://www.w3.org/2000/svg" xmlns:xlink="http://www.w3.org/1999/xlink" width="504" height="360" viewBox="0 0 504 360">
<defs>
<clipPath id="clip-0">
<path clip-rule="nonzero" d="M 59.039062 59.039062 L 473.757812 59.039062 L 473.757812 286.558594 L 59.039062 286.558594 Z M 59.039062 59.039062 "/>
</clipPath>
</defs>
<rect x="-50.4" y="-36" width="604.8" height="432" fill="rgb(100%, 100%, 100%)" fill-opacity="1"/>
<g clip-path="url(#clip-0)">
<path fill-rule="nonzero" fill="rgb(100%, 100%, 100%)" fill-opacity="1" stroke-width="0.75" stroke-linecap="round" stroke-linejoin="round" stroke="rgb(100%, 100%, 100%)" stroke-opacity="1" stroke-miterlimit="10" d="M 59.039062 286.558594 L 473.757812 286.558594 L 473.757812 59.039062 L 59.039062 59.039062 Z M 59.039062 286.558594 "/>
</g>
<path fill="none" stroke-width="0.75" stroke-linecap="round" stroke-linejoin="round" stroke="rgb(0%, 0%, 0%)" stroke-opacity="1" stroke-miterlimit="10" d="M 289.992188 265.097656 L 289.066406 265.773438 L 288.773438 266.5625 L 288.550781 266.871094 L 287.9375 267.074219 L 287.332031 267.082031 L 285.019531 265.496094 L 284.488281 265.570312 L 285.015625 264.84375 L 286.453125 264.253906 L 287.257812 263.476562 L 289.125 264.234375 Z M 289.992188 265.097656 "/>
<path fill="none" stroke-width="0.75" stroke-linecap="round" stroke-linejoin="round" stroke="rgb(0%, 0%, 0%)" stroke-opacity="1" stroke-miterlimit="10" d="M 255.367188 213.824219 L 255.832031 214.1875 L 256.996094 214.128906 L 256.613281 214.9375 L 255.328125 215.839844 L 254.460938 216.730469 L 253.417969 217.472656 L 252.910156 216.621094 L 252.324219 216.652344 L 251.425781 215.011719 L 251.265625 212.558594 L 252.4375 211.917969 L 254.058594 211.957031 Z M 255.367188 213.824219 "/>
<path fill="none" stroke-width="0.75" stroke-linecap="round" stroke-linejoin="round" stroke="rgb(0%, 0%, 0%)" stroke-opacity="1" stroke-miterlimit="10" d="M 231.277344 176.402344 L 232.835938 176.886719 L 234 176.878906 L 235.03125 178.296875 L 235.585938 180.535156 L 236.875 182.746094 L 238.558594 184.671875 L 238.625 185.847656 L 238.023438 186.480469 L 236.765625 187.265625 L 236.769531 188.105469 L 237.601562 187.679688 L 238.316406 187.484375 L 240.042969 187.671875 L 240.648438 188.527344 L 241.066406 189.804688 L 241.285156 190.855469 L 241.132812 191.996094 L 240.671875 191.632812 L 240.199219 190.613281 L 239.675781 190.140625 L 239.0625 189.886719 L 239.339844 191.289062 L 239.230469 193.164062 L 239.496094 193.339844 L 240.316406 193.371094 L 239.777344 195.289062 L 238.65625 195.808594 L 237.347656 196.003906 L 237.035156 196.683594 L 236.796875 197.558594 L 236.117188 198.867188 L 235.214844 199.601562 L 234.105469 199.453125 L 233.015625 198.871094 L 232.070312 198.753906 L 231.40625 199.097656 L 230.976562 199.417969 L 230.558594 199.363281 L 229.367188 199.484375 L 228.242188 199.457031 L 228.082031 198.949219 L 228.273438 197.417969 L 228.023438 197 L 226.949219 196.789062 L 226.550781 196.425781 L 225.933594 195.367188 L 225.816406 194.871094 L 225.726562 194.1875 L 225.074219 193.308594 L 224.285156 192.675781 L 223.820312 192.644531 L 222.894531 193.675781 L 222.128906 194.71875 L 222.398438 195.242188 L 222.648438 195.933594 L 222.234375 196.429688 L 220.976562 197.5625 L 220.78125 198 L 220.441406 198.238281 L 219.839844 197.925781 L 218.347656 197.996094 L 217.660156 197.796875 L 216.863281 196.964844 L 214.914062 196.40625 L 214.589844 195.070312 L 214.210938 194.820312 L 212.003906 192.527344 L 211.710938 191.761719 L 211.996094 191.308594 L 212.820312 190.613281 L 215.589844 189.46875 L 216.027344 189.007812 L 216.117188 188.601562 L 215.304688 188.136719 L 214.570312 187.621094 L 214.320312 187.285156 L 214.300781 186.992188 L 214.714844 186.613281 L 215.550781 186.585938 L 216.214844 186.757812 L 216.738281 186.414062 L 217.664062 186.070312 L 218.28125 185.636719 L 218.816406 184.515625 L 219.378906 183.507812 L 219.4375 182.960938 L 219.929688 181.050781 L 220.199219 180.574219 L 221.949219 179.320312 L 222.394531 180.003906 L 223.257812 180.171875 L 224.027344 179.542969 L 224.953125 177.558594 L 225.597656 177.433594 L 226.304688 177.59375 L 227.699219 177.34375 L 230.175781 176.417969 Z M 231.277344 176.402344 "/>
<path fill="none" stroke-width="0.75" stroke-linecap="round" stroke-linejoin="round" stroke="rgb(0%, 0%, 0%)" stroke-opacity="1" stroke-miterlimit="10" d="M 245.320312 172.367188 L 243.925781 172.382812 L 243.421875 172.214844 L 242.820312 171.738281 L 242.144531 169.0625 L 242.386719 168.117188 L 242.664062 167.652344 L 242.96875 167.292969 L 243.703125 167.144531 L 244.433594 167.648438 L 244.710938 168.121094 L 245.324219 169.929688 L 245.4375 171.480469 Z M 245.320312 172.367188 "/>
<path fill="none" stroke-width="0.75" stroke-linecap="round" stroke-linejoin="round" stroke="rgb(0%, 0%, 0%)" stroke-opacity="1" stroke-miterlimit="10" d="M 234 162.980469 L 234.402344 165.480469 L 234.789062 167.035156 L 234.816406 167.5625 L 234.449219 168.300781 L 232.628906 169.28125 L 232.054688 169.285156 L 232.03125 169.046875 L 232.441406 168.050781 L 232.085938 166.921875 L 232.261719 166.058594 L 232.089844 165.902344 L 231.734375 166.023438 L 230.429688 167.390625 L 229.992188 167.523438 L 229.945312 167.246094 L 230.269531 166.128906 L 230.308594 165.363281 L 230.503906 164.894531 L 230.859375 164.460938 L 231.28125 164.132812 L 231.621094 164.085938 L 231.984375 164.421875 L 233.042969 163.484375 Z M 234 162.980469 "/>
<path fill="none" stroke-width="0.75" stroke-linecap="round" stroke-linejoin="round" stroke="rgb(0%, 0%, 0%)" stroke-opacity="1" stroke-miterlimit="10" d="M 235.757812 165.242188 L 235.527344 165.449219 L 234.96875 165.390625 L 234.761719 165.078125 L 234.644531 164.59375 L 234.632812 163.710938 L 234.96875 163.074219 L 236.402344 162.117188 L 235.753906 161.777344 L 235.730469 161.539062 L 236.101562 160.746094 L 237.644531 159.507812 L 238.054688 159.28125 L 238.464844 159.316406 L 237.667969 161.515625 Z M 235.757812 165.242188 "/>
<path fill="none" stroke-width="0.75" stroke-linecap="round" stroke-linejoin="round" stroke="rgb(0%, 0%, 0%)" stroke-opacity="1" stroke-miterlimit="10" d="M 237.882812 154.917969 L 233.480469 156 L 231.960938 155.902344 L 231.824219 155.371094 L 232.125 155.015625 L 233.382812 154.671875 L 233.890625 152.066406 L 231.992188 150.867188 L 231.890625 150.53125 L 232.039062 149.957031 L 232.261719 149.703125 L 233.414062 149.097656 L 233.898438 148.960938 L 234.292969 149.042969 L 235.101562 149.742188 L 236.015625 151.210938 L 237.242188 151.445312 L 238.070312 152.066406 Z M 237.882812 154.917969 "/>
<path fill="none" stroke-width="0.75" stroke-linecap="round" stroke-linejoin="round" stroke="rgb(0%, 0%, 0%)" stroke-opacity="1" stroke-miterlimit="10" d="M 228.707031 150.226562 L 228.078125 150.335938 L 228.035156 150.058594 L 229.125 148.742188 L 229.832031 148.523438 L 230.078125 148.652344 L 229.566406 149.414062 Z M 228.707031 150.226562 "/>
<path fill="none" stroke-width="0.75" stroke-linecap="round" stroke-linejoin="round" stroke="rgb(0%, 0%, 0%)" stroke-opacity="1" stroke-miterlimit="10" d="M 219.757812 142.8125 L 218.785156 143.082031 L 218.425781 142.925781 L 218.363281 142.679688 L 218.585938 142.007812 L 219.332031 141.769531 L 219.871094 142.132812 L 219.957031 142.464844 Z M 219.757812 142.8125 "/>
<path fill="none" stroke-width="0.75" stroke-linecap="round" stroke-linejoin="round" stroke="rgb(0%, 0%, 0%)" stroke-opacity="1" stroke-miterlimit="10" d="M 232.339844 142.828125 L 232.011719 143.078125 L 231.597656 143.03125 L 231.1875 142.707031 L 230.644531 141.789062 L 231.863281 141.15625 L 232.351562 141.527344 L 232.539062 141.953125 L 232.546875 142.425781 Z M 232.339844 142.828125 "/>
<path fill="none" stroke-width="0.75" stroke-linecap="round" stroke-linejoin="round" stroke="rgb(0%, 0%, 0%)" stroke-opacity="1" stroke-miterlimit="10" d="M 221.605469 139.890625 L 221.140625 140 L 220.527344 139.894531 L 220.148438 139.59375 L 219.769531 138.394531 L 219.699219 137.671875 L 219.867188 136.324219 L 219.828125 134.710938 L 221.089844 134.664062 L 221.414062 134.894531 L 221.632812 139.675781 Z M 221.605469 139.890625 "/>
<path fill="none" stroke-width="0.75" stroke-linecap="round" stroke-linejoin="round" stroke="rgb(0%, 0%, 0%)" stroke-opacity="1" stroke-miterlimit="10" d="M 233.828125 132.296875 L 233.8125 133.160156 L 233.617188 134.171875 L 233.871094 135.246094 L 233.929688 136.015625 L 234.394531 136.261719 L 234.679688 136.613281 L 236.75 137.011719 L 238.679688 136.898438 L 239.050781 137.214844 L 239.089844 137.71875 L 238.785156 138.273438 L 237.691406 139.285156 L 236.378906 140.917969 L 235.992188 141.257812 L 235.566406 141.273438 L 235.265625 141.128906 L 235.046875 138.21875 L 233.628906 138.589844 L 232.484375 138.546875 L 231.859375 138.195312 L 231.417969 137.511719 L 230.535156 135.757812 L 227.957031 135.066406 L 227.230469 134.101562 L 227.011719 133.519531 L 227.101562 133.195312 L 227.640625 132.480469 L 228.3125 132.734375 L 228.726562 132.578125 L 228.980469 132.257812 L 228.976562 131.992188 L 228.625 131.367188 L 228.605469 131.175781 L 231.242188 130.382812 L 231.472656 129.144531 L 232.042969 129.042969 L 232.695312 129.449219 L 233.589844 130.734375 Z M 233.828125 132.296875 "/>
<path fill="none" stroke-width="0.75" stroke-linecap="round" stroke-linejoin="round" stroke="rgb(0%, 0%, 0%)" stroke-opacity="1" stroke-miterlimit="10" d="M 222.097656 128.832031 L 223.34375 129.925781 L 222.347656 131.746094 L 220.824219 131.738281 L 218.675781 130.410156 L 218.667969 130.136719 L 218.847656 129.738281 L 219.167969 129.421875 L 219.503906 129.347656 L 220.035156 129.566406 L 220.777344 129.21875 L 221.371094 129.328125 Z M 222.097656 128.832031 "/>
<path fill="none" stroke-width="0.75" stroke-linecap="round" stroke-linejoin="round" stroke="rgb(0%, 0%, 0%)" stroke-opacity="1" stroke-miterlimit="10" d="M 233.230469 115.574219 L 231.824219 118.972656 L 231.273438 119.054688 L 230.789062 119.90625 L 229.292969 120.84375 L 230.601562 120.863281 L 230.964844 121.171875 L 230.976562 121.847656 L 230.726562 122.238281 L 229.035156 123.796875 L 227.871094 124.386719 L 226.617188 126.011719 L 225.984375 126.03125 L 225.359375 127.066406 L 224.84375 127.523438 L 224.554688 127.523438 L 224.222656 127.292969 L 223.445312 126.28125 L 224.855469 125.285156 L 224.988281 124.726562 L 225.953125 124.140625 L 225.871094 123.960938 L 224.339844 123.140625 L 223.738281 122.589844 L 223.796875 122.300781 L 224.53125 121.667969 L 224.183594 121.585938 L 223.945312 121.242188 L 223.519531 121.113281 L 223.390625 120.792969 L 223.3125 119.957031 L 223.425781 119.101562 L 223.871094 118.722656 L 224.054688 118.320312 L 224.234375 118.195312 L 224.925781 118.410156 L 225.628906 119.09375 L 226.445312 118.832031 L 227.394531 118.960938 L 227.414062 118.800781 L 226.714844 117.121094 L 226.839844 116.777344 L 227.21875 116.382812 L 229.410156 115.1875 L 232.140625 113.167969 L 232.800781 112.851562 L 233 113.128906 L 233.277344 114.171875 Z M 233.230469 115.574219 "/>
<path fill="none" stroke-width="0.75" stroke-linecap="round" stroke-linejoin="round" stroke="rgb(0%, 0%, 0%)" stroke-opacity="1" stroke-miterlimit="10" d="M 267.390625 112.605469 L 267.484375 114.199219 L 267.355469 114.683594 L 267.089844 115.28125 L 266.253906 116.390625 L 264.058594 117.980469 L 260.03125 121.636719 L 257.652344 123.449219 L 257.328125 124.324219 L 257.148438 125.535156 L 258.574219 125.777344 L 259.125 126.1875 L 258.78125 126.804688 L 256.675781 128.945312 L 256.054688 130.882812 L 257.671875 130.8125 L 259 130.441406 L 261.65625 129.234375 L 264.148438 128.335938 L 265.34375 128.300781 L 267.671875 129.015625 L 268.203125 129.039062 L 269.191406 128.707031 L 270.191406 128.648438 L 276.960938 128.871094 L 278.839844 128.453125 L 280.085938 128.953125 L 281.125 130.207031 L 282.117188 132.519531 L 282.085938 132.902344 L 281.488281 133.957031 L 280.386719 135.277344 L 279.4375 137.09375 L 279.15625 138.074219 L 278.96875 139.148438 L 278.667969 140.140625 L 276.78125 144.804688 L 274.941406 147.386719 L 274.121094 149.222656 L 273.105469 150.683594 L 272.128906 151.601562 L 271.085938 152.214844 L 268.078125 152.871094 L 267.234375 153.339844 L 266.230469 154.144531 L 265.175781 154.542969 L 266.414062 154.492188 L 267.640625 154.046875 L 269.871094 153.878906 L 272.441406 155.425781 L 272.203125 156.6875 L 271.171875 157.6875 L 268.824219 157.84375 L 266.632812 160.066406 L 265.640625 160.75 L 264.597656 161.089844 L 263.289062 160.988281 L 260.914062 160.394531 L 259.875 159.769531 L 260.816406 160.785156 L 261.878906 161.316406 L 268.0625 162.5625 L 268.433594 162.433594 L 270.40625 161.113281 L 273.03125 161.09375 L 278.035156 163.515625 L 279.472656 165.367188 L 281.535156 168.023438 L 282.660156 169.058594 L 283.472656 170 L 283.972656 171.40625 L 284.941406 176.054688 L 286.042969 180.597656 L 287.492188 185.519531 L 288.148438 186.886719 L 289.011719 187.847656 L 293.378906 190.050781 L 294.351562 190.78125 L 296.046875 192.902344 L 297.679688 195.160156 L 299.203125 196.894531 L 300.84375 198.300781 L 300.046875 199.03125 L 299.503906 200.179688 L 299.910156 201.738281 L 300.578125 203.226562 L 301.894531 205.613281 L 303.050781 208.214844 L 302.625 207.824219 L 302.175781 207.605469 L 301.5625 207.671875 L 300.960938 207.546875 L 299.855469 206.730469 L 298.789062 205.730469 L 296.675781 206.132812 L 295.5 205.953125 L 294.480469 205.980469 L 296.414062 206.558594 L 298.527344 206.597656 L 303.195312 210.964844 L 304.773438 213.550781 L 305.710938 216.972656 L 305.074219 218.507812 L 304.078125 219.503906 L 303.152344 220.640625 L 302.285156 221.925781 L 304.871094 223.816406 L 305.429688 223.757812 L 306 223.496094 L 306.550781 222.851562 L 307.476562 221.289062 L 307.957031 220.734375 L 309.566406 220.53125 L 310.917969 220.652344 L 312.265625 220.996094 L 313.449219 220.886719 L 315.835938 221.558594 L 317.0625 222.164062 L 320.097656 224.886719 L 320.753906 226.378906 L 321.054688 228.300781 L 321.089844 230.4375 L 320.578125 232.386719 L 319.992188 234.148438 L 319.632812 236.421875 L 319.375 237.242188 L 319.015625 237.882812 L 317.40625 239.675781 L 316.339844 240.414062 L 315.886719 240.089844 L 315.40625 240.136719 L 315.355469 240.566406 L 315.863281 241.484375 L 315.871094 242.589844 L 314.917969 243.40625 L 313.953125 243.757812 L 312.339844 243.320312 L 310.09375 244.84375 L 311.707031 245.628906 L 312.03125 246.460938 L 311.628906 247.925781 L 310.613281 248.582031 L 309.492188 248.871094 L 308.339844 248.941406 L 307.386719 249.296875 L 306.472656 249.988281 L 307.617188 249.621094 L 308.414062 249.945312 L 308.914062 251.175781 L 309.367188 251.53125 L 311.613281 252.058594 L 313 252.054688 L 315.679688 251.753906 L 316.964844 251.761719 L 317.421875 251.984375 L 317.429688 253.003906 L 317.230469 255.515625 L 316.878906 256.035156 L 313.328125 258.140625 L 312.597656 259.613281 L 312.394531 260.507812 L 310.316406 260.347656 L 309.34375 261.292969 L 307.664062 261.917969 L 306.363281 262.585938 L 305.089844 263.429688 L 304.042969 263.679688 L 299.523438 262.679688 L 296.792969 262.761719 L 293.09375 263.632812 L 292.140625 263.492188 L 290.710938 262.65625 L 289.25 262.089844 L 287.566406 261.84375 L 286.113281 261.074219 L 287.019531 262.554688 L 285.003906 263.984375 L 284.074219 264.269531 L 283.113281 264.222656 L 281.140625 264.613281 L 279.316406 264.414062 L 279.589844 265.429688 L 280.078125 266.316406 L 279.683594 266.703125 L 279.265625 266.796875 L 275.789062 266.128906 L 275.296875 266.253906 L 274.867188 266.871094 L 273.601562 266.539062 L 272.375 265.5 L 271.070312 264.800781 L 269.699219 264.472656 L 268.609375 264.585938 L 264.128906 266.226562 L 263.234375 267.871094 L 262.785156 270.207031 L 262.140625 272.277344 L 261.085938 273.875 L 259.828125 274.082031 L 258.648438 272.976562 L 256.398438 271.757812 L 255.636719 270.933594 L 255.390625 270.886719 L 255.140625 271.179688 L 254.257812 271.550781 L 253.347656 271.570312 L 251.941406 271.898438 L 249.492188 272.890625 L 248.503906 273.5625 L 246.378906 275.417969 L 245.949219 275.929688 L 245.175781 277.804688 L 243.996094 278.132812 L 242.914062 276.933594 L 241.6875 276.515625 L 240.390625 276.925781 L 239.605469 277.5625 L 239.242188 277.042969 L 239.226562 275.980469 L 240.175781 274.710938 L 242.699219 273.753906 L 244.917969 271.265625 L 246.003906 269.75 L 246.4375 268.898438 L 246.96875 268.355469 L 247.664062 268.148438 L 248.019531 267.207031 L 251.097656 263.421875 L 251.351562 262.550781 L 251.503906 261 L 251.757812 259.503906 L 254.265625 258.535156 L 255.460938 255.390625 L 255.792969 255.140625 L 259.289062 254.5625 L 261.878906 254.609375 L 264.453125 255.222656 L 265.773438 255.28125 L 267.097656 255.066406 L 268.136719 254.21875 L 269.914062 251.15625 L 270.914062 249.808594 L 272.0625 248.59375 L 273.132812 247.203125 L 274.871094 244.628906 L 273.695312 245.515625 L 272.277344 246.921875 L 271.453125 247.738281 L 268.839844 248.5625 L 267.714844 249.402344 L 265.738281 251.296875 L 265.359375 251.453125 L 262.382812 251 L 260.167969 248.539062 L 258.75 247.535156 L 258.167969 247.417969 L 257.5625 247.71875 L 256.269531 248.023438 L 254.949219 247.972656 L 255.625 246.835938 L 256.539062 246.203125 L 254.488281 245.761719 L 253.921875 245.417969 L 253.273438 244.621094 L 251.667969 244.484375 L 250.898438 244.6875 L 249.609375 245.738281 L 247.566406 246.859375 L 245.105469 245.308594 L 244.625 244.628906 L 244.636719 243.316406 L 244.265625 242.277344 L 243.585938 241.910156 L 244.457031 240.558594 L 245.511719 239.65625 L 247.828125 238.761719 L 251.339844 236.636719 L 253.308594 235.730469 L 255.136719 234.167969 L 255.890625 233.21875 L 256.441406 231.914062 L 256.984375 230.316406 L 257.761719 229.019531 L 257.007812 228.710938 L 256.671875 227.730469 L 256.761719 226.738281 L 257.109375 225.855469 L 256.796875 224.75 L 256.242188 223.597656 L 256.273438 222.695312 L 256.421875 221.734375 L 255.007812 221.785156 L 253.601562 222.085938 L 252.324219 222.769531 L 251.089844 223.695312 L 249.992188 223.867188 L 250.007812 223.125 L 250.484375 222.210938 L 251.730469 220.902344 L 253.0625 219.820312 L 253.539062 218.996094 L 253.910156 218.039062 L 254.574219 217.273438 L 256.316406 215.820312 L 259.652344 214.191406 L 260.152344 214.09375 L 261.460938 214.28125 L 262.746094 214.035156 L 263.871094 213.449219 L 264.996094 213.324219 L 267.523438 215.015625 L 266.769531 212.398438 L 267.886719 211.769531 L 269.503906 214.136719 L 270.105469 214.386719 L 271.371094 214.042969 L 270.882812 213.644531 L 270.3125 213.621094 L 269.5625 213.261719 L 268.933594 212.503906 L 267.886719 210.09375 L 267.945312 208.664062 L 268.648438 207.175781 L 269.429688 205.808594 L 268.773438 205.535156 L 268.25 205.011719 L 268.101562 203.644531 L 268.304688 202.433594 L 269.710938 201.367188 L 270.125 199.746094 L 270.300781 197.964844 L 270.066406 197.148438 L 268.671875 197.277344 L 267.996094 197.613281 L 267.390625 198.140625 L 266.765625 198.109375 L 265.046875 196.136719 L 264.066406 194.644531 L 262.304688 191.488281 L 262.054688 189.601562 L 263.464844 185.535156 L 265.640625 182.933594 L 268.203125 182.027344 L 267.707031 181.855469 L 263.800781 181.820312 L 262.515625 182.140625 L 261.324219 183.203125 L 260.648438 183.527344 L 259.941406 183.648438 L 259.296875 184.179688 L 258.664062 184.914062 L 258.007812 185.382812 L 256.707031 185.261719 L 256.074219 185.414062 L 255.621094 184.992188 L 255.238281 184.289062 L 254.742188 184.101562 L 254.1875 184.316406 L 253.011719 185.261719 L 251.820312 185.824219 L 250.382812 185.226562 L 248.496094 184.113281 L 248.125 184.519531 L 247.707031 185.550781 L 247.46875 187.164062 L 246.128906 185.765625 L 244.988281 183.890625 L 244.605469 182.714844 L 244.574219 181.390625 L 245.195312 180.875 L 245.867188 181.34375 L 246.871094 178.203125 L 248.863281 174.109375 L 249.570312 172.910156 L 250.058594 171.34375 L 249.976562 170.320312 L 249.535156 169.453125 L 247.679688 167.488281 L 247.707031 165.890625 L 247.90625 164.082031 L 248.410156 163 L 248.621094 162.792969 L 251.085938 162.820312 L 250.125 162.261719 L 248.210938 160.628906 L 248.242188 160.050781 L 248.695312 158.539062 L 248.484375 158.695312 L 248.074219 159.390625 L 247.292969 161.078125 L 246.8125 161.472656 L 245.460938 161.875 L 245.214844 162.707031 L 244.996094 162.921875 L 244.320312 163.015625 L 244.113281 163.792969 L 243.960938 163.84375 L 243.769531 163.003906 L 243.75 161.617188 L 244.019531 160.34375 L 244.535156 159.347656 L 246.519531 157.078125 L 245.554688 157.777344 L 243.363281 159.875 L 242.246094 161.25 L 241.945312 161.71875 L 241.851562 162.109375 L 241.859375 162.5625 L 242.363281 164.984375 L 242.21875 166.105469 L 240.332031 173.523438 L 239.976562 174.265625 L 239.644531 174.65625 L 239.335938 174.746094 L 238.40625 174.601562 L 237.992188 174.046875 L 237.992188 173.417969 L 238.167969 172.472656 L 238.949219 168.953125 L 239.289062 167.976562 L 239.792969 167.070312 L 240.90625 165.476562 L 240.878906 165.375 L 240.140625 165.6875 L 239.824219 165.582031 L 239.597656 165.269531 L 239.746094 160.550781 L 240.34375 158.996094 L 240.570312 156.738281 L 241.089844 154.804688 L 241.691406 153.398438 L 242.152344 151.59375 L 242.84375 150.792969 L 243.027344 149.566406 L 243.804688 148.242188 L 244.402344 146.855469 L 244.078125 146.992188 L 240.246094 150.601562 L 239.269531 151.261719 L 237.941406 151.082031 L 236.921875 150.675781 L 236.125 149.824219 L 235.769531 148.183594 L 234.789062 148.140625 L 233.949219 147.855469 L 233.960938 147.632812 L 235.042969 146.738281 L 236.78125 146.433594 L 238.40625 145.003906 L 236.960938 144.035156 L 237.082031 143.730469 L 238.34375 142.90625 L 239.945312 140.144531 L 240.273438 137.605469 L 239.503906 136.410156 L 239.226562 135.628906 L 237.695312 134.757812 L 237.4375 133.640625 L 237.617188 133.019531 L 238.117188 132.410156 L 238.871094 131.9375 L 240.050781 131.484375 L 238.980469 131 L 238.578125 130.425781 L 238.277344 129.597656 L 238.246094 129.117188 L 238.804688 126.972656 L 239.125 126.089844 L 239.757812 124.964844 L 242.625 125.027344 L 242.957031 124.53125 L 243.28125 124.511719 L 244.746094 124.964844 L 244.527344 124.476562 L 242.132812 121.800781 L 241.917969 121.292969 L 242.601562 119.851562 L 242.648438 119.210938 L 242.550781 118.523438 L 242.746094 118 L 243.503906 117.753906 L 245.824219 117.777344 L 246.394531 117.535156 L 246.132812 116.839844 L 245.59375 115.925781 L 245.488281 115.160156 L 245.613281 114.480469 L 245.644531 113.117188 L 245.75 112.515625 L 246.300781 111.613281 L 246.753906 111.34375 L 247.320312 111.1875 L 248.589844 111.488281 L 249.074219 111.851562 L 249.632812 112.714844 L 250.042969 112.644531 L 251.628906 111.707031 L 252.105469 111.574219 L 252.753906 112.660156 L 255.457031 111.792969 L 259.097656 111.40625 L 261.285156 110.835938 L 263.585938 110.628906 L 265.738281 109.984375 L 268.015625 110.28125 L 268.089844 110.65625 L 267.972656 111.179688 Z M 267.390625 112.605469 "/>
<path fill="none" stroke-width="0.75" stroke-linecap="round" stroke-linejoin="round" stroke="rgb(0%, 0%, 0%)" stroke-opacity="1" stroke-miterlimit="10" d="M 269.382812 108.199219 L 269.277344 108.257812 L 268.875 107.902344 L 268.210938 106.621094 L 269.253906 106.367188 L 269.746094 106.523438 L 269.5625 107.070312 Z M 269.382812 108.199219 "/>
<path fill="none" stroke-width="0.75" stroke-linecap="round" stroke-linejoin="round" stroke="rgb(0%, 0%, 0%)" stroke-opacity="1" stroke-miterlimit="10" d="M 266.777344 107.175781 L 266.144531 107.433594 L 265.519531 107.414062 L 264.542969 106.289062 L 264.167969 105.46875 L 264.238281 104.925781 L 264.648438 104.742188 L 265.59375 105.011719 L 266.085938 105.949219 L 266.144531 106.558594 L 266.261719 106.796875 L 266.847656 107.039062 Z M 266.777344 107.175781 "/>
<path fill="none" stroke-width="0.75" stroke-linecap="round" stroke-linejoin="round" stroke="rgb(0%, 0%, 0%)" stroke-opacity="1" stroke-miterlimit="10" d="M 267.96875 102.585938 L 267.820312 103.066406 L 268.660156 103.054688 L 269.878906 103.464844 L 270.617188 103.519531 L 271.230469 104.027344 L 270.890625 104.980469 L 270.523438 105.246094 L 270.109375 105.296875 L 268.660156 104.347656 L 266.757812 104.742188 L 266.382812 104.621094 L 266.132812 104.359375 L 266.03125 104.03125 L 266.027344 103.367188 L 265.925781 103.171875 L 265.238281 103.800781 L 264.933594 103.726562 L 264.765625 103.425781 L 264.691406 102.800781 L 264.765625 101.898438 L 265.171875 100.617188 L 265.851562 100.359375 L 266.871094 100.507812 L 268.035156 101.234375 L 268.390625 101.683594 L 268.378906 102.042969 Z M 267.96875 102.585938 "/>
<path fill="none" stroke-width="0.75" stroke-linecap="round" stroke-linejoin="round" stroke="rgb(0%, 0%, 0%)" stroke-opacity="1" stroke-miterlimit="10" d="M 273.589844 98.65625 L 272.339844 98.679688 L 272.984375 97.527344 L 273.738281 97.238281 L 275.160156 97.367188 L 274.90625 97.882812 Z M 273.589844 98.65625 "/>
<path fill="none" stroke-width="0.75" stroke-linecap="round" stroke-linejoin="round" stroke="rgb(0%, 0%, 0%)" stroke-opacity="1" stroke-miterlimit="10" d="M 271.59375 99.527344 L 270.644531 100.011719 L 270.238281 99.609375 L 270.132812 98.355469 L 269.003906 97.820312 L 268.453125 97.484375 L 268.027344 96.855469 L 268.136719 96.660156 L 268.871094 96.402344 L 270.132812 97.546875 L 270.648438 98.472656 L 271.582031 98.746094 L 271.699219 98.886719 Z M 271.59375 99.527344 "/>
<path fill="none" stroke-width="0.75" stroke-linecap="round" stroke-linejoin="round" stroke="rgb(0%, 0%, 0%)" stroke-opacity="1" stroke-miterlimit="10" d="M 287.3125 73.203125 L 287.539062 74.578125 L 288.113281 74.21875 L 288.972656 75.539062 L 289.414062 75.539062 L 290.136719 75.015625 L 289.992188 76.242188 L 289.238281 79.644531 L 289.027344 80.222656 L 288.886719 81.257812 L 288.734375 81.457031 L 288.515625 83.550781 L 288.003906 84.238281 L 287.582031 85.882812 L 287.40625 86.042969 L 286.785156 85.410156 L 287.40625 82.902344 L 287.664062 81.445312 L 287.5 80.6875 L 287.148438 80.007812 L 286.195312 79.984375 L 285.394531 80.300781 L 285.222656 79.898438 L 285.199219 79.355469 L 285.003906 79.175781 L 283.9375 79.214844 L 283.625 79.0625 L 283.417969 78.566406 L 283.378906 78.171875 L 284.339844 77.863281 L 285.25 77.976562 L 286.574219 77.191406 L 285.746094 74.546875 L 284.648438 74.296875 L 284.394531 74.042969 L 284.605469 73.59375 L 285.210938 73.351562 L 286.136719 72.011719 L 286.695312 71.800781 L 287.382812 71.835938 Z M 287.3125 73.203125 "/>
<path fill="none" stroke-width="0.75" stroke-linecap="round" stroke-linejoin="round" stroke="rgb(0%, 0%, 0%)" stroke-opacity="1" stroke-miterlimit="10" d="M 290.25 73.664062 L 289.96875 73.890625 L 288.886719 71.910156 L 289.6875 69.644531 L 290.65625 69.714844 L 290.8125 70.308594 L 290.714844 70.855469 L 290.21875 70.902344 L 290.175781 71.070312 L 290.332031 72.125 L 290.339844 73.347656 Z M 290.25 73.664062 "/>
<path fill="none" stroke-width="0.75" stroke-linecap="round" stroke-linejoin="round" stroke="rgb(0%, 0%, 0%)" stroke-opacity="1" stroke-miterlimit="10" d="M 293.214844 67.855469 L 293.214844 68.078125 L 292.640625 69.722656 L 292.648438 70.351562 L 291.722656 70.289062 L 291.578125 70.089844 L 291.402344 69.148438 L 291.519531 68.144531 L 291.648438 67.882812 L 291.917969 67.777344 L 292.210938 67.976562 L 292.671875 67.464844 L 292.910156 67.480469 Z M 293.214844 67.855469 "/>
</svg>
